<mxfile host="65bd71144e">
    <diagram id="uYihaEzG5yYLAbrfvW4l" name="Trang chủ">
        <mxGraphModel dx="891" dy="1553" grid="1" gridSize="10" guides="1" tooltips="1" connect="1" arrows="1" fold="1" page="1" pageScale="1" pageWidth="827" pageHeight="1169" math="0" shadow="0">
            <root>
                <mxCell id="0"/>
                <mxCell id="1" parent="0"/>
                <mxCell id="yHgJs0PUcVv4BqSKWa0l-30" value="" style="strokeWidth=1;shadow=0;dashed=0;align=center;html=1;shape=mxgraph.mockup.containers.browserWindow;rSize=0;strokeColor=#666666;strokeColor2=#008cff;strokeColor3=#c4c4c4;mainText=,;recursiveResize=0;fontSize=15;" parent="1" vertex="1">
                    <mxGeometry x="9" y="-1140" width="810" height="750" as="geometry"/>
                </mxCell>
                <mxCell id="yHgJs0PUcVv4BqSKWa0l-31" value="Page 1" style="strokeWidth=1;shadow=0;dashed=0;align=center;html=1;shape=mxgraph.mockup.containers.anchor;fontSize=17;fontColor=#666666;align=left;" parent="yHgJs0PUcVv4BqSKWa0l-30" vertex="1">
                    <mxGeometry x="60" y="12" width="110" height="26" as="geometry"/>
                </mxCell>
                <mxCell id="yHgJs0PUcVv4BqSKWa0l-32" value="https://localhost:3000/nhanvien" style="strokeWidth=1;shadow=0;dashed=0;align=center;html=1;shape=mxgraph.mockup.containers.anchor;rSize=0;fontSize=17;fontColor=#666666;align=left;" parent="yHgJs0PUcVv4BqSKWa0l-30" vertex="1">
                    <mxGeometry x="130" y="60" width="250" height="26" as="geometry"/>
                </mxCell>
                <mxCell id="2" value="Logo" style="rounded=0;whiteSpace=wrap;html=1;fontSize=20;" parent="yHgJs0PUcVv4BqSKWa0l-30" vertex="1">
                    <mxGeometry x="19" y="130" width="121" height="30" as="geometry"/>
                </mxCell>
                <mxCell id="6" value="Thông tin&lt;br&gt;nhân viên&amp;nbsp;" style="rounded=1;whiteSpace=wrap;html=1;fontSize=20;" parent="yHgJs0PUcVv4BqSKWa0l-30" vertex="1">
                    <mxGeometry x="11" y="260" width="120" height="70" as="geometry"/>
                </mxCell>
                <mxCell id="14" value="Thông tin&lt;br&gt;nhân viên&amp;nbsp;" style="rounded=1;whiteSpace=wrap;html=1;fontSize=20;" parent="yHgJs0PUcVv4BqSKWa0l-30" vertex="1">
                    <mxGeometry x="139" y="260" width="120" height="70" as="geometry"/>
                </mxCell>
                <mxCell id="15" value="Thông tin&lt;br&gt;nhân viên&amp;nbsp;" style="rounded=1;whiteSpace=wrap;html=1;fontSize=20;" parent="yHgJs0PUcVv4BqSKWa0l-30" vertex="1">
                    <mxGeometry x="391" y="260" width="120" height="70" as="geometry"/>
                </mxCell>
                <mxCell id="16" value="Thông tin&lt;br&gt;nhân viên&amp;nbsp;" style="rounded=1;whiteSpace=wrap;html=1;fontSize=20;" parent="yHgJs0PUcVv4BqSKWa0l-30" vertex="1">
                    <mxGeometry x="520" y="260" width="120" height="70" as="geometry"/>
                </mxCell>
                <mxCell id="17" value="Thông tin&lt;br&gt;nhân viên&amp;nbsp;" style="rounded=1;whiteSpace=wrap;html=1;fontSize=20;" parent="yHgJs0PUcVv4BqSKWa0l-30" vertex="1">
                    <mxGeometry x="648" y="260" width="120" height="70" as="geometry"/>
                </mxCell>
                <mxCell id="18" value="Thông tin&lt;br&gt;nhân viên&amp;nbsp;" style="rounded=1;whiteSpace=wrap;html=1;fontSize=20;" parent="yHgJs0PUcVv4BqSKWa0l-30" vertex="1">
                    <mxGeometry x="265" y="260" width="120" height="70" as="geometry"/>
                </mxCell>
                <mxCell id="19" value="Thông tin&lt;br&gt;nhân viên&amp;nbsp;" style="rounded=1;whiteSpace=wrap;html=1;fontSize=20;" parent="yHgJs0PUcVv4BqSKWa0l-30" vertex="1">
                    <mxGeometry x="11" y="360" width="120" height="70" as="geometry"/>
                </mxCell>
                <mxCell id="20" value="Thông tin&lt;br&gt;nhân viên&amp;nbsp;" style="rounded=1;whiteSpace=wrap;html=1;fontSize=20;" parent="yHgJs0PUcVv4BqSKWa0l-30" vertex="1">
                    <mxGeometry x="139" y="360" width="120" height="70" as="geometry"/>
                </mxCell>
                <mxCell id="21" value="Thông tin&lt;br&gt;nhân viên&amp;nbsp;" style="rounded=1;whiteSpace=wrap;html=1;fontSize=20;" parent="yHgJs0PUcVv4BqSKWa0l-30" vertex="1">
                    <mxGeometry x="391" y="360" width="120" height="70" as="geometry"/>
                </mxCell>
                <mxCell id="22" value="Thông tin&lt;br&gt;nhân viên&amp;nbsp;" style="rounded=1;whiteSpace=wrap;html=1;fontSize=20;" parent="yHgJs0PUcVv4BqSKWa0l-30" vertex="1">
                    <mxGeometry x="520" y="360" width="120" height="70" as="geometry"/>
                </mxCell>
                <mxCell id="23" value="Thông tin&lt;br&gt;nhân viên&amp;nbsp;" style="rounded=1;whiteSpace=wrap;html=1;fontSize=20;" parent="yHgJs0PUcVv4BqSKWa0l-30" vertex="1">
                    <mxGeometry x="648" y="360" width="120" height="70" as="geometry"/>
                </mxCell>
                <mxCell id="24" value="Thông tin&lt;br&gt;nhân viên&amp;nbsp;" style="rounded=1;whiteSpace=wrap;html=1;fontSize=20;" parent="yHgJs0PUcVv4BqSKWa0l-30" vertex="1">
                    <mxGeometry x="265" y="360" width="120" height="70" as="geometry"/>
                </mxCell>
                <mxCell id="25" value="Thông tin&lt;br&gt;nhân viên&amp;nbsp;" style="rounded=1;whiteSpace=wrap;html=1;fontSize=20;" parent="yHgJs0PUcVv4BqSKWa0l-30" vertex="1">
                    <mxGeometry x="11" y="450" width="120" height="70" as="geometry"/>
                </mxCell>
                <mxCell id="26" value="Thông tin&lt;br&gt;nhân viên&amp;nbsp;" style="rounded=1;whiteSpace=wrap;html=1;fontSize=20;" parent="yHgJs0PUcVv4BqSKWa0l-30" vertex="1">
                    <mxGeometry x="139" y="450" width="120" height="70" as="geometry"/>
                </mxCell>
                <mxCell id="27" value="Thông tin&lt;br&gt;nhân viên&amp;nbsp;" style="rounded=1;whiteSpace=wrap;html=1;fontSize=20;" parent="yHgJs0PUcVv4BqSKWa0l-30" vertex="1">
                    <mxGeometry x="391" y="450" width="120" height="70" as="geometry"/>
                </mxCell>
                <mxCell id="28" value="Thông tin&lt;br&gt;nhân viên&amp;nbsp;" style="rounded=1;whiteSpace=wrap;html=1;fontSize=20;" parent="yHgJs0PUcVv4BqSKWa0l-30" vertex="1">
                    <mxGeometry x="520" y="450" width="120" height="70" as="geometry"/>
                </mxCell>
                <mxCell id="29" value="Thông tin&lt;br&gt;nhân viên&amp;nbsp;" style="rounded=1;whiteSpace=wrap;html=1;fontSize=20;" parent="yHgJs0PUcVv4BqSKWa0l-30" vertex="1">
                    <mxGeometry x="648" y="450" width="120" height="70" as="geometry"/>
                </mxCell>
                <mxCell id="30" value="Thông tin&lt;br&gt;nhân viên&amp;nbsp;" style="rounded=1;whiteSpace=wrap;html=1;fontSize=20;" parent="yHgJs0PUcVv4BqSKWa0l-30" vertex="1">
                    <mxGeometry x="265" y="450" width="120" height="70" as="geometry"/>
                </mxCell>
                <mxCell id="oOD5AlHcefdETONleFzx-33" value="&lt;h1&gt;&lt;font style=&quot;font-size: 21px&quot;&gt;Thông tin liên lạc&lt;/font&gt;&lt;/h1&gt;&lt;p&gt;Địa chỉ:&lt;/p&gt;&lt;p&gt;Email:&lt;/p&gt;&lt;p&gt;Điện thoại&lt;/p&gt;" style="text;html=1;strokeColor=none;fillColor=none;spacing=5;spacingTop=-20;whiteSpace=wrap;overflow=hidden;rounded=0;fontSize=15;" parent="yHgJs0PUcVv4BqSKWa0l-30" vertex="1">
                    <mxGeometry x="60" y="556" width="190" height="180" as="geometry"/>
                </mxCell>
                <mxCell id="oOD5AlHcefdETONleFzx-36" value="" style="verticalLabelPosition=bottom;shadow=0;dashed=0;align=center;html=1;verticalAlign=top;strokeWidth=1;shape=mxgraph.mockup.markup.line;strokeColor=#999999;fontSize=21;" parent="yHgJs0PUcVv4BqSKWa0l-30" vertex="1">
                    <mxGeometry x="20" y="546" width="740" height="20" as="geometry"/>
                </mxCell>
                <mxCell id="Hpy-gOojoLwU63MxkT3C-33" value="" style="dashed=0;outlineConnect=0;html=1;align=center;labelPosition=center;verticalLabelPosition=bottom;verticalAlign=top;shape=mxgraph.weblogos.youtube;fillColor=#FF2626;gradientColor=#B5171F;fontSize=21;" parent="yHgJs0PUcVv4BqSKWa0l-30" vertex="1">
                    <mxGeometry x="440" y="580" width="108.6" height="39.2" as="geometry"/>
                </mxCell>
                <mxCell id="Hpy-gOojoLwU63MxkT3C-31" value="" style="dashed=0;outlineConnect=0;html=1;align=center;labelPosition=center;verticalLabelPosition=bottom;verticalAlign=top;shape=mxgraph.weblogos.twitter;fillColor=#1DA1F2;strokeColor=none;fontSize=21;" parent="yHgJs0PUcVv4BqSKWa0l-30" vertex="1">
                    <mxGeometry x="570" y="580" width="40" height="39.2" as="geometry"/>
                </mxCell>
                <mxCell id="Hpy-gOojoLwU63MxkT3C-30" value="" style="dashed=0;outlineConnect=0;html=1;align=center;labelPosition=center;verticalLabelPosition=bottom;verticalAlign=top;shape=mxgraph.weblogos.gmail;fontSize=21;" parent="yHgJs0PUcVv4BqSKWa0l-30" vertex="1">
                    <mxGeometry x="630" y="580.0000000000001" width="54.8" height="39.4" as="geometry"/>
                </mxCell>
                <mxCell id="Hpy-gOojoLwU63MxkT3C-32" value="" style="dashed=0;outlineConnect=0;html=1;align=center;labelPosition=center;verticalLabelPosition=bottom;verticalAlign=top;shape=mxgraph.weblogos.yahoo_2;fillColor=#65106E;strokeColor=none;fontSize=21;" parent="yHgJs0PUcVv4BqSKWa0l-30" vertex="1">
                    <mxGeometry x="700" y="580" width="60" height="39.2" as="geometry"/>
                </mxCell>
                <mxCell id="8j3O6LDYlsUAX9R5mcz5-30" value="" style="strokeWidth=1;shadow=0;dashed=0;align=center;html=1;shape=mxgraph.mockup.forms.rrect;rSize=0;strokeColor=#999999;fontSize=21;" parent="1" vertex="1">
                    <mxGeometry x="190" y="-1010" width="500" height="30" as="geometry"/>
                </mxCell>
                <mxCell id="8j3O6LDYlsUAX9R5mcz5-31" value="Nhân viên" style="strokeColor=inherit;fillColor=inherit;gradientColor=inherit;strokeWidth=1;shadow=0;dashed=0;align=center;html=1;shape=mxgraph.mockup.forms.rrect;rSize=0;fontSize=17;fontColor=#666666;" parent="8j3O6LDYlsUAX9R5mcz5-30" vertex="1">
                    <mxGeometry width="158" height="30" as="geometry"/>
                </mxCell>
                <mxCell id="8j3O6LDYlsUAX9R5mcz5-32" value="Phòng ban" style="strokeColor=inherit;fillColor=inherit;gradientColor=inherit;strokeWidth=1;shadow=0;dashed=0;align=center;html=1;shape=mxgraph.mockup.forms.rrect;rSize=0;fontSize=17;fontColor=#666666;" parent="8j3O6LDYlsUAX9R5mcz5-30" vertex="1">
                    <mxGeometry x="158" width="162" height="30" as="geometry"/>
                </mxCell>
                <mxCell id="8j3O6LDYlsUAX9R5mcz5-33" value="Bảng lương" style="strokeColor=inherit;fillColor=inherit;gradientColor=inherit;strokeWidth=1;shadow=0;dashed=0;align=center;html=1;shape=mxgraph.mockup.forms.rrect;rSize=0;fontSize=17;fontColor=#666666;" parent="8j3O6LDYlsUAX9R5mcz5-30" vertex="1">
                    <mxGeometry x="320" width="180" height="30" as="geometry"/>
                </mxCell>
            </root>
        </mxGraphModel>
    </diagram>
    <diagram name="Thông tin chi tiết nhân viên" id="iOfrH2cJzjKsWXyQhXN3">
        <mxGraphModel dx="891" dy="1553" grid="1" gridSize="10" guides="1" tooltips="1" connect="1" arrows="1" fold="1" page="1" pageScale="1" pageWidth="827" pageHeight="1169" math="0" shadow="0">
            <root>
                <mxCell id="kZ9RoO5h-RxAki_2kh-3-0"/>
                <mxCell id="kZ9RoO5h-RxAki_2kh-3-1" parent="kZ9RoO5h-RxAki_2kh-3-0"/>
                <mxCell id="kZ9RoO5h-RxAki_2kh-3-39" value="" style="strokeWidth=1;shadow=0;dashed=0;align=center;html=1;shape=mxgraph.mockup.containers.browserWindow;rSize=0;strokeColor=#666666;strokeColor2=#008cff;strokeColor3=#c4c4c4;mainText=,;recursiveResize=0;fontSize=17;" parent="kZ9RoO5h-RxAki_2kh-3-1" vertex="1">
                    <mxGeometry x="20" y="-1150" width="790" height="730" as="geometry"/>
                </mxCell>
                <mxCell id="kZ9RoO5h-RxAki_2kh-3-40" value="Page 1" style="strokeWidth=1;shadow=0;dashed=0;align=center;html=1;shape=mxgraph.mockup.containers.anchor;fontSize=17;fontColor=#666666;align=left;" parent="kZ9RoO5h-RxAki_2kh-3-39" vertex="1">
                    <mxGeometry x="60" y="12" width="110" height="26" as="geometry"/>
                </mxCell>
                <mxCell id="kZ9RoO5h-RxAki_2kh-3-41" value="https://localhost:3000/staff/0" style="strokeWidth=1;shadow=0;dashed=0;align=center;html=1;shape=mxgraph.mockup.containers.anchor;rSize=0;fontSize=17;fontColor=#666666;align=left;" parent="kZ9RoO5h-RxAki_2kh-3-39" vertex="1">
                    <mxGeometry x="130" y="60" width="250" height="26" as="geometry"/>
                </mxCell>
                <mxCell id="kZ9RoO5h-RxAki_2kh-3-24" value="Nhân viên" style="strokeWidth=1;shadow=0;dashed=0;align=center;html=1;shape=mxgraph.mockup.navigation.anchor;fontSize=17;fontColor=#666666;fontStyle=1;" parent="kZ9RoO5h-RxAki_2kh-3-39" vertex="1">
                    <mxGeometry x="40" y="220" width="60" height="30" as="geometry"/>
                </mxCell>
                <mxCell id="kZ9RoO5h-RxAki_2kh-3-25" value="/" style="strokeWidth=1;shadow=0;dashed=0;align=center;html=1;shape=mxgraph.mockup.navigation.anchor;fontSize=24;fontColor=#aaaaaa;fontStyle=1;" parent="kZ9RoO5h-RxAki_2kh-3-39" vertex="1">
                    <mxGeometry x="120" y="220" width="20" height="30" as="geometry"/>
                </mxCell>
                <mxCell id="kZ9RoO5h-RxAki_2kh-3-30" value="Nguyễn Văn A" style="strokeWidth=1;shadow=0;dashed=0;align=center;html=1;shape=mxgraph.mockup.navigation.anchor;fontSize=17;fontColor=#008cff;fontStyle=1;" parent="kZ9RoO5h-RxAki_2kh-3-39" vertex="1">
                    <mxGeometry x="170" y="220" width="60" height="30" as="geometry"/>
                </mxCell>
                <mxCell id="kZ9RoO5h-RxAki_2kh-3-38" value="" style="verticalLabelPosition=bottom;shadow=0;dashed=0;align=center;html=1;verticalAlign=top;strokeWidth=1;shape=mxgraph.mockup.containers.userMale;strokeColor=#666666;strokeColor2=#008cff;fontSize=19;" parent="kZ9RoO5h-RxAki_2kh-3-39" vertex="1">
                    <mxGeometry x="30" y="280" width="150" height="140" as="geometry"/>
                </mxCell>
                <mxCell id="kZ9RoO5h-RxAki_2kh-3-50" value="Nguyễn Văn A" style="text;strokeColor=none;fillColor=none;html=1;fontSize=20;fontStyle=1;verticalAlign=middle;align=center;" parent="kZ9RoO5h-RxAki_2kh-3-39" vertex="1">
                    <mxGeometry x="280" y="270" width="110" height="40" as="geometry"/>
                </mxCell>
                <mxCell id="kZ9RoO5h-RxAki_2kh-3-51" value="&lt;ul style=&quot;font-size: 15px&quot;&gt;&lt;li style=&quot;font-size: 15px&quot;&gt;Ngày sinh&lt;/li&gt;&lt;li style=&quot;font-size: 15px&quot;&gt;Ngày vào công ty&amp;nbsp;&lt;/li&gt;&lt;li style=&quot;font-size: 15px&quot;&gt;Phòng ban&lt;/li&gt;&lt;li style=&quot;font-size: 15px&quot;&gt;Số ngày nghỉ còn lại&lt;/li&gt;&lt;li style=&quot;font-size: 15px&quot;&gt;Số ngày làm thêm&lt;/li&gt;&lt;/ul&gt;" style="text;strokeColor=none;fillColor=none;html=1;whiteSpace=wrap;verticalAlign=middle;overflow=hidden;fontSize=15;" parent="kZ9RoO5h-RxAki_2kh-3-39" vertex="1">
                    <mxGeometry x="240" y="290" width="190" height="140" as="geometry"/>
                </mxCell>
                <mxCell id="Si88kqC5YB5WM9UUDTYt-0" value="&lt;h1&gt;&lt;font style=&quot;font-size: 21px&quot;&gt;Thông tin liên lạc&lt;/font&gt;&lt;/h1&gt;&lt;p&gt;Địa chỉ:&lt;/p&gt;&lt;p&gt;Email:&lt;/p&gt;&lt;p&gt;Điện thoại&lt;/p&gt;" style="text;html=1;strokeColor=none;fillColor=none;spacing=5;spacingTop=-20;whiteSpace=wrap;overflow=hidden;rounded=0;fontSize=15;" parent="kZ9RoO5h-RxAki_2kh-3-39" vertex="1">
                    <mxGeometry x="50" y="530" width="190" height="180" as="geometry"/>
                </mxCell>
                <mxCell id="Si88kqC5YB5WM9UUDTYt-3" value="" style="verticalLabelPosition=bottom;shadow=0;dashed=0;align=center;html=1;verticalAlign=top;strokeWidth=1;shape=mxgraph.mockup.markup.line;strokeColor=#999999;fontSize=21;" parent="kZ9RoO5h-RxAki_2kh-3-39" vertex="1">
                    <mxGeometry x="30" y="520" width="740" height="20" as="geometry"/>
                </mxCell>
                <mxCell id="Pk6ouCwDsQOH1O1x0X4p-0" value="" style="dashed=0;outlineConnect=0;html=1;align=center;labelPosition=center;verticalLabelPosition=bottom;verticalAlign=top;shape=mxgraph.weblogos.gmail;fontSize=21;" parent="kZ9RoO5h-RxAki_2kh-3-1" vertex="1">
                    <mxGeometry x="590" y="-589.1999999999999" width="54.8" height="39.4" as="geometry"/>
                </mxCell>
                <mxCell id="Pk6ouCwDsQOH1O1x0X4p-1" value="" style="dashed=0;outlineConnect=0;html=1;align=center;labelPosition=center;verticalLabelPosition=bottom;verticalAlign=top;shape=mxgraph.weblogos.twitter;fillColor=#1DA1F2;strokeColor=none;fontSize=21;" parent="kZ9RoO5h-RxAki_2kh-3-1" vertex="1">
                    <mxGeometry x="530" y="-589.2" width="40" height="39.2" as="geometry"/>
                </mxCell>
                <mxCell id="Pk6ouCwDsQOH1O1x0X4p-2" value="" style="dashed=0;outlineConnect=0;html=1;align=center;labelPosition=center;verticalLabelPosition=bottom;verticalAlign=top;shape=mxgraph.weblogos.yahoo_2;fillColor=#65106E;strokeColor=none;fontSize=21;" parent="kZ9RoO5h-RxAki_2kh-3-1" vertex="1">
                    <mxGeometry x="660" y="-589.2" width="60" height="39.2" as="geometry"/>
                </mxCell>
                <mxCell id="Pk6ouCwDsQOH1O1x0X4p-3" value="" style="dashed=0;outlineConnect=0;html=1;align=center;labelPosition=center;verticalLabelPosition=bottom;verticalAlign=top;shape=mxgraph.weblogos.youtube;fillColor=#FF2626;gradientColor=#B5171F;fontSize=21;" parent="kZ9RoO5h-RxAki_2kh-3-1" vertex="1">
                    <mxGeometry x="400" y="-589.2" width="108.6" height="39.2" as="geometry"/>
                </mxCell>
                <mxCell id="0m4DwTfgnZZCfTn-UeDx-0" value="" style="strokeWidth=1;shadow=0;dashed=0;align=center;html=1;shape=mxgraph.mockup.forms.rrect;rSize=0;strokeColor=#999999;fontSize=21;" parent="kZ9RoO5h-RxAki_2kh-3-1" vertex="1">
                    <mxGeometry x="190" y="-1010" width="500" height="30" as="geometry"/>
                </mxCell>
                <mxCell id="0m4DwTfgnZZCfTn-UeDx-1" value="Nhân viên" style="strokeColor=inherit;fillColor=inherit;gradientColor=inherit;strokeWidth=1;shadow=0;dashed=0;align=center;html=1;shape=mxgraph.mockup.forms.rrect;rSize=0;fontSize=17;fontColor=#666666;" parent="0m4DwTfgnZZCfTn-UeDx-0" vertex="1">
                    <mxGeometry width="158" height="30" as="geometry"/>
                </mxCell>
                <mxCell id="0m4DwTfgnZZCfTn-UeDx-2" value="Phòng ban" style="strokeColor=inherit;fillColor=inherit;gradientColor=inherit;strokeWidth=1;shadow=0;dashed=0;align=center;html=1;shape=mxgraph.mockup.forms.rrect;rSize=0;fontSize=17;fontColor=#666666;" parent="0m4DwTfgnZZCfTn-UeDx-0" vertex="1">
                    <mxGeometry x="158" width="162" height="30" as="geometry"/>
                </mxCell>
                <mxCell id="0m4DwTfgnZZCfTn-UeDx-3" value="Bảng lương" style="strokeColor=inherit;fillColor=inherit;gradientColor=inherit;strokeWidth=1;shadow=0;dashed=0;align=center;html=1;shape=mxgraph.mockup.forms.rrect;rSize=0;fontSize=17;fontColor=#666666;" parent="0m4DwTfgnZZCfTn-UeDx-0" vertex="1">
                    <mxGeometry x="320" width="180" height="30" as="geometry"/>
                </mxCell>
                <mxCell id="rH8Z53a8veNKhZ5amflr-0" value="Logo" style="rounded=0;whiteSpace=wrap;html=1;fontSize=20;" parent="kZ9RoO5h-RxAki_2kh-3-1" vertex="1">
                    <mxGeometry x="28" y="-1010" width="121" height="30" as="geometry"/>
                </mxCell>
            </root>
        </mxGraphModel>
    </diagram>
    <diagram name="Phòng ban" id="eo7qJKPljspo3CoHWtd1">
        <mxGraphModel dx="891" dy="1553" grid="1" gridSize="10" guides="1" tooltips="1" connect="1" arrows="1" fold="1" page="1" pageScale="1" pageWidth="827" pageHeight="1169" math="0" shadow="0">
            <root>
                <mxCell id="Sx32C6u2IIP4NcDK9pmc-0"/>
                <mxCell id="Sx32C6u2IIP4NcDK9pmc-1" parent="Sx32C6u2IIP4NcDK9pmc-0"/>
                <mxCell id="Sx32C6u2IIP4NcDK9pmc-2" value="" style="strokeWidth=1;shadow=0;dashed=0;align=center;html=1;shape=mxgraph.mockup.containers.browserWindow;rSize=0;strokeColor=#666666;strokeColor2=#008cff;strokeColor3=#c4c4c4;mainText=,;recursiveResize=0;fontSize=17;" parent="Sx32C6u2IIP4NcDK9pmc-1" vertex="1">
                    <mxGeometry x="20" y="-1150" width="790" height="730" as="geometry"/>
                </mxCell>
                <mxCell id="Sx32C6u2IIP4NcDK9pmc-3" value="Page 1" style="strokeWidth=1;shadow=0;dashed=0;align=center;html=1;shape=mxgraph.mockup.containers.anchor;fontSize=17;fontColor=#666666;align=left;" parent="Sx32C6u2IIP4NcDK9pmc-2" vertex="1">
                    <mxGeometry x="60" y="12" width="110" height="26" as="geometry"/>
                </mxCell>
                <mxCell id="Sx32C6u2IIP4NcDK9pmc-4" value="https://localhost:3000/phongban" style="strokeWidth=1;shadow=0;dashed=0;align=center;html=1;shape=mxgraph.mockup.containers.anchor;rSize=0;fontSize=17;fontColor=#666666;align=left;" parent="Sx32C6u2IIP4NcDK9pmc-2" vertex="1">
                    <mxGeometry x="130" y="60" width="250" height="26" as="geometry"/>
                </mxCell>
                <mxCell id="Sx32C6u2IIP4NcDK9pmc-15" value="&lt;h1&gt;&lt;font style=&quot;font-size: 21px&quot;&gt;Thông tin liên lạc&lt;/font&gt;&lt;/h1&gt;&lt;p&gt;Địa chỉ:&lt;/p&gt;&lt;p&gt;Email:&lt;/p&gt;&lt;p&gt;Điện thoại&lt;/p&gt;" style="text;html=1;strokeColor=none;fillColor=none;spacing=5;spacingTop=-20;whiteSpace=wrap;overflow=hidden;rounded=0;fontSize=15;" parent="Sx32C6u2IIP4NcDK9pmc-2" vertex="1">
                    <mxGeometry x="50" y="530" width="190" height="180" as="geometry"/>
                </mxCell>
                <mxCell id="Sx32C6u2IIP4NcDK9pmc-18" value="" style="verticalLabelPosition=bottom;shadow=0;dashed=0;align=center;html=1;verticalAlign=top;strokeWidth=1;shape=mxgraph.mockup.markup.line;strokeColor=#999999;fontSize=21;" parent="Sx32C6u2IIP4NcDK9pmc-2" vertex="1">
                    <mxGeometry x="30" y="520" width="740" height="20" as="geometry"/>
                </mxCell>
                <mxCell id="BvCiMcON1NpXJMtklcm_-1" value="" style="strokeWidth=1;shadow=0;dashed=0;align=center;html=1;shape=mxgraph.mockup.forms.rrect;rSize=0;strokeColor=#999999;fillColor=#ffffff;fontSize=21;" parent="Sx32C6u2IIP4NcDK9pmc-2" vertex="1">
                    <mxGeometry x="30" y="230" width="150" height="130" as="geometry"/>
                </mxCell>
                <mxCell id="BvCiMcON1NpXJMtklcm_-2" value="Tên phòng ban" style="strokeWidth=1;shadow=0;dashed=0;align=center;html=1;shape=mxgraph.mockup.forms.rrect;rSize=0;strokeColor=#999999;fontColor=#008cff;fontSize=17;fillColor=#ffffff;resizeWidth=1;" parent="BvCiMcON1NpXJMtklcm_-1" vertex="1">
                    <mxGeometry width="150" height="30" relative="1" as="geometry"/>
                </mxCell>
                <mxCell id="BvCiMcON1NpXJMtklcm_-3" value="Item 1" style="strokeWidth=1;shadow=0;dashed=0;align=center;html=1;shape=mxgraph.mockup.forms.anchor;fontSize=17;fontColor=#666666;align=left;spacingLeft=5;resizeWidth=1;" parent="BvCiMcON1NpXJMtklcm_-1" vertex="1">
                    <mxGeometry width="150" height="20" relative="1" as="geometry">
                        <mxPoint y="30" as="offset"/>
                    </mxGeometry>
                </mxCell>
                <mxCell id="BvCiMcON1NpXJMtklcm_-4" value="Item 2" style="strokeWidth=1;shadow=0;dashed=0;align=center;html=1;shape=mxgraph.mockup.forms.anchor;fontSize=17;fontColor=#666666;align=left;spacingLeft=5;resizeWidth=1;" parent="BvCiMcON1NpXJMtklcm_-1" vertex="1">
                    <mxGeometry width="150" height="20" relative="1" as="geometry">
                        <mxPoint y="50" as="offset"/>
                    </mxGeometry>
                </mxCell>
                <mxCell id="BvCiMcON1NpXJMtklcm_-5" value="Item 3" style="strokeWidth=1;shadow=0;dashed=0;align=center;html=1;shape=mxgraph.mockup.forms.rrect;rSize=0;fontSize=17;fontColor=#666666;align=left;spacingLeft=5;fillColor=#ddeeff;strokeColor=none;resizeWidth=1;" parent="BvCiMcON1NpXJMtklcm_-1" vertex="1">
                    <mxGeometry width="150" height="20" relative="1" as="geometry">
                        <mxPoint y="70" as="offset"/>
                    </mxGeometry>
                </mxCell>
                <mxCell id="BvCiMcON1NpXJMtklcm_-6" value="Item 4" style="strokeWidth=1;shadow=0;dashed=0;align=center;html=1;shape=mxgraph.mockup.forms.anchor;fontSize=17;fontColor=#666666;align=left;spacingLeft=5;resizeWidth=1;" parent="BvCiMcON1NpXJMtklcm_-1" vertex="1">
                    <mxGeometry width="150" height="20" relative="1" as="geometry">
                        <mxPoint y="90" as="offset"/>
                    </mxGeometry>
                </mxCell>
                <mxCell id="BvCiMcON1NpXJMtklcm_-11" value="" style="strokeWidth=1;shadow=0;dashed=0;align=center;html=1;shape=mxgraph.mockup.forms.rrect;rSize=0;strokeColor=#999999;fillColor=#ffffff;fontSize=21;" parent="Sx32C6u2IIP4NcDK9pmc-2" vertex="1">
                    <mxGeometry x="200" y="230" width="150" height="130" as="geometry"/>
                </mxCell>
                <mxCell id="BvCiMcON1NpXJMtklcm_-12" value="Tên phòng ban" style="strokeWidth=1;shadow=0;dashed=0;align=center;html=1;shape=mxgraph.mockup.forms.rrect;rSize=0;strokeColor=#999999;fontColor=#008cff;fontSize=17;fillColor=#ffffff;resizeWidth=1;" parent="BvCiMcON1NpXJMtklcm_-11" vertex="1">
                    <mxGeometry width="150" height="30" relative="1" as="geometry"/>
                </mxCell>
                <mxCell id="BvCiMcON1NpXJMtklcm_-13" value="Item 1" style="strokeWidth=1;shadow=0;dashed=0;align=center;html=1;shape=mxgraph.mockup.forms.anchor;fontSize=17;fontColor=#666666;align=left;spacingLeft=5;resizeWidth=1;" parent="BvCiMcON1NpXJMtklcm_-11" vertex="1">
                    <mxGeometry width="150" height="20" relative="1" as="geometry">
                        <mxPoint y="30" as="offset"/>
                    </mxGeometry>
                </mxCell>
                <mxCell id="BvCiMcON1NpXJMtklcm_-14" value="Item 2" style="strokeWidth=1;shadow=0;dashed=0;align=center;html=1;shape=mxgraph.mockup.forms.anchor;fontSize=17;fontColor=#666666;align=left;spacingLeft=5;resizeWidth=1;" parent="BvCiMcON1NpXJMtklcm_-11" vertex="1">
                    <mxGeometry width="150" height="20" relative="1" as="geometry">
                        <mxPoint y="50" as="offset"/>
                    </mxGeometry>
                </mxCell>
                <mxCell id="BvCiMcON1NpXJMtklcm_-15" value="Item 3" style="strokeWidth=1;shadow=0;dashed=0;align=center;html=1;shape=mxgraph.mockup.forms.rrect;rSize=0;fontSize=17;fontColor=#666666;align=left;spacingLeft=5;fillColor=#ddeeff;strokeColor=none;resizeWidth=1;" parent="BvCiMcON1NpXJMtklcm_-11" vertex="1">
                    <mxGeometry width="150" height="20" relative="1" as="geometry">
                        <mxPoint y="70" as="offset"/>
                    </mxGeometry>
                </mxCell>
                <mxCell id="BvCiMcON1NpXJMtklcm_-16" value="Item 4" style="strokeWidth=1;shadow=0;dashed=0;align=center;html=1;shape=mxgraph.mockup.forms.anchor;fontSize=17;fontColor=#666666;align=left;spacingLeft=5;resizeWidth=1;" parent="BvCiMcON1NpXJMtklcm_-11" vertex="1">
                    <mxGeometry width="150" height="20" relative="1" as="geometry">
                        <mxPoint y="90" as="offset"/>
                    </mxGeometry>
                </mxCell>
                <mxCell id="BvCiMcON1NpXJMtklcm_-17" value="" style="strokeWidth=1;shadow=0;dashed=0;align=center;html=1;shape=mxgraph.mockup.forms.rrect;rSize=0;strokeColor=#999999;fillColor=#ffffff;fontSize=21;" parent="Sx32C6u2IIP4NcDK9pmc-2" vertex="1">
                    <mxGeometry x="380" y="230" width="150" height="130" as="geometry"/>
                </mxCell>
                <mxCell id="BvCiMcON1NpXJMtklcm_-18" value="Tên phòng ban" style="strokeWidth=1;shadow=0;dashed=0;align=center;html=1;shape=mxgraph.mockup.forms.rrect;rSize=0;strokeColor=#999999;fontColor=#008cff;fontSize=17;fillColor=#ffffff;resizeWidth=1;" parent="BvCiMcON1NpXJMtklcm_-17" vertex="1">
                    <mxGeometry width="150" height="30" relative="1" as="geometry"/>
                </mxCell>
                <mxCell id="BvCiMcON1NpXJMtklcm_-19" value="Item 1" style="strokeWidth=1;shadow=0;dashed=0;align=center;html=1;shape=mxgraph.mockup.forms.anchor;fontSize=17;fontColor=#666666;align=left;spacingLeft=5;resizeWidth=1;" parent="BvCiMcON1NpXJMtklcm_-17" vertex="1">
                    <mxGeometry width="150" height="20" relative="1" as="geometry">
                        <mxPoint y="30" as="offset"/>
                    </mxGeometry>
                </mxCell>
                <mxCell id="BvCiMcON1NpXJMtklcm_-20" value="Item 2" style="strokeWidth=1;shadow=0;dashed=0;align=center;html=1;shape=mxgraph.mockup.forms.anchor;fontSize=17;fontColor=#666666;align=left;spacingLeft=5;resizeWidth=1;" parent="BvCiMcON1NpXJMtklcm_-17" vertex="1">
                    <mxGeometry width="150" height="20" relative="1" as="geometry">
                        <mxPoint y="50" as="offset"/>
                    </mxGeometry>
                </mxCell>
                <mxCell id="BvCiMcON1NpXJMtklcm_-21" value="Item 3" style="strokeWidth=1;shadow=0;dashed=0;align=center;html=1;shape=mxgraph.mockup.forms.rrect;rSize=0;fontSize=17;fontColor=#666666;align=left;spacingLeft=5;fillColor=#ddeeff;strokeColor=none;resizeWidth=1;" parent="BvCiMcON1NpXJMtklcm_-17" vertex="1">
                    <mxGeometry width="150" height="20" relative="1" as="geometry">
                        <mxPoint y="70" as="offset"/>
                    </mxGeometry>
                </mxCell>
                <mxCell id="BvCiMcON1NpXJMtklcm_-22" value="Item 4" style="strokeWidth=1;shadow=0;dashed=0;align=center;html=1;shape=mxgraph.mockup.forms.anchor;fontSize=17;fontColor=#666666;align=left;spacingLeft=5;resizeWidth=1;" parent="BvCiMcON1NpXJMtklcm_-17" vertex="1">
                    <mxGeometry width="150" height="20" relative="1" as="geometry">
                        <mxPoint y="90" as="offset"/>
                    </mxGeometry>
                </mxCell>
                <mxCell id="TMWLIREizMTeWG53a-Th-0" value="" style="dashed=0;outlineConnect=0;html=1;align=center;labelPosition=center;verticalLabelPosition=bottom;verticalAlign=top;shape=mxgraph.weblogos.gmail;fontSize=21;" parent="Sx32C6u2IIP4NcDK9pmc-1" vertex="1">
                    <mxGeometry x="590" y="-589.1999999999999" width="54.8" height="39.4" as="geometry"/>
                </mxCell>
                <mxCell id="TMWLIREizMTeWG53a-Th-1" value="" style="dashed=0;outlineConnect=0;html=1;align=center;labelPosition=center;verticalLabelPosition=bottom;verticalAlign=top;shape=mxgraph.weblogos.twitter;fillColor=#1DA1F2;strokeColor=none;fontSize=21;" parent="Sx32C6u2IIP4NcDK9pmc-1" vertex="1">
                    <mxGeometry x="530" y="-589.2" width="40" height="39.2" as="geometry"/>
                </mxCell>
                <mxCell id="TMWLIREizMTeWG53a-Th-2" value="" style="dashed=0;outlineConnect=0;html=1;align=center;labelPosition=center;verticalLabelPosition=bottom;verticalAlign=top;shape=mxgraph.weblogos.yahoo_2;fillColor=#65106E;strokeColor=none;fontSize=21;" parent="Sx32C6u2IIP4NcDK9pmc-1" vertex="1">
                    <mxGeometry x="660" y="-589.2" width="60" height="39.2" as="geometry"/>
                </mxCell>
                <mxCell id="TMWLIREizMTeWG53a-Th-3" value="" style="dashed=0;outlineConnect=0;html=1;align=center;labelPosition=center;verticalLabelPosition=bottom;verticalAlign=top;shape=mxgraph.weblogos.youtube;fillColor=#FF2626;gradientColor=#B5171F;fontSize=21;" parent="Sx32C6u2IIP4NcDK9pmc-1" vertex="1">
                    <mxGeometry x="400" y="-589.2" width="108.6" height="39.2" as="geometry"/>
                </mxCell>
                <mxCell id="Rs4tY93Q33XsHcypzXb_-0" value="" style="strokeWidth=1;shadow=0;dashed=0;align=center;html=1;shape=mxgraph.mockup.forms.rrect;rSize=0;strokeColor=#999999;fontSize=21;" parent="Sx32C6u2IIP4NcDK9pmc-1" vertex="1">
                    <mxGeometry x="190" y="-1010" width="500" height="30" as="geometry"/>
                </mxCell>
                <mxCell id="Rs4tY93Q33XsHcypzXb_-1" value="Nhân viên" style="strokeColor=inherit;fillColor=inherit;gradientColor=inherit;strokeWidth=1;shadow=0;dashed=0;align=center;html=1;shape=mxgraph.mockup.forms.rrect;rSize=0;fontSize=17;fontColor=#666666;" parent="Rs4tY93Q33XsHcypzXb_-0" vertex="1">
                    <mxGeometry width="158" height="30" as="geometry"/>
                </mxCell>
                <mxCell id="Rs4tY93Q33XsHcypzXb_-2" value="Phòng ban" style="strokeColor=inherit;fillColor=inherit;gradientColor=inherit;strokeWidth=1;shadow=0;dashed=0;align=center;html=1;shape=mxgraph.mockup.forms.rrect;rSize=0;fontSize=17;fontColor=#666666;" parent="Rs4tY93Q33XsHcypzXb_-0" vertex="1">
                    <mxGeometry x="158" width="162" height="30" as="geometry"/>
                </mxCell>
                <mxCell id="Rs4tY93Q33XsHcypzXb_-3" value="Bảng lương" style="strokeColor=inherit;fillColor=inherit;gradientColor=inherit;strokeWidth=1;shadow=0;dashed=0;align=center;html=1;shape=mxgraph.mockup.forms.rrect;rSize=0;fontSize=17;fontColor=#666666;" parent="Rs4tY93Q33XsHcypzXb_-0" vertex="1">
                    <mxGeometry x="320" width="180" height="30" as="geometry"/>
                </mxCell>
                <mxCell id="B0U9wU7Nolw_O0WICdms-0" value="Logo" style="rounded=0;whiteSpace=wrap;html=1;fontSize=20;" parent="Sx32C6u2IIP4NcDK9pmc-1" vertex="1">
                    <mxGeometry x="28" y="-1010" width="121" height="30" as="geometry"/>
                </mxCell>
            </root>
        </mxGraphModel>
    </diagram>
    <diagram name="Bảng lương" id="E3Ouv5iLcxCFdOBI6cxi">
        <mxGraphModel dx="891" dy="1553" grid="1" gridSize="10" guides="1" tooltips="1" connect="1" arrows="1" fold="1" page="1" pageScale="1" pageWidth="827" pageHeight="1169" math="0" shadow="0">
            <root>
                <mxCell id="2R_5ch53V4PXtTOOOV5N-0"/>
                <mxCell id="2R_5ch53V4PXtTOOOV5N-1" parent="2R_5ch53V4PXtTOOOV5N-0"/>
                <mxCell id="2R_5ch53V4PXtTOOOV5N-2" value="" style="strokeWidth=1;shadow=0;dashed=0;align=center;html=1;shape=mxgraph.mockup.containers.browserWindow;rSize=0;strokeColor=#666666;strokeColor2=#008cff;strokeColor3=#c4c4c4;mainText=,;recursiveResize=0;fontSize=17;" parent="2R_5ch53V4PXtTOOOV5N-1" vertex="1">
                    <mxGeometry x="20" y="-1150" width="790" height="730" as="geometry"/>
                </mxCell>
                <mxCell id="2R_5ch53V4PXtTOOOV5N-3" value="Page 1" style="strokeWidth=1;shadow=0;dashed=0;align=center;html=1;shape=mxgraph.mockup.containers.anchor;fontSize=17;fontColor=#666666;align=left;" parent="2R_5ch53V4PXtTOOOV5N-2" vertex="1">
                    <mxGeometry x="60" y="12" width="110" height="26" as="geometry"/>
                </mxCell>
                <mxCell id="2R_5ch53V4PXtTOOOV5N-4" value="https://localhost:3000/bangluong" style="strokeWidth=1;shadow=0;dashed=0;align=center;html=1;shape=mxgraph.mockup.containers.anchor;rSize=0;fontSize=17;fontColor=#666666;align=left;" parent="2R_5ch53V4PXtTOOOV5N-2" vertex="1">
                    <mxGeometry x="130" y="60" width="250" height="26" as="geometry"/>
                </mxCell>
                <mxCell id="2R_5ch53V4PXtTOOOV5N-9" value="&lt;h1&gt;&lt;font style=&quot;font-size: 21px&quot;&gt;Thông tin liên lạc&lt;/font&gt;&lt;/h1&gt;&lt;p&gt;Địa chỉ:&lt;/p&gt;&lt;p&gt;Email:&lt;/p&gt;&lt;p&gt;Điện thoại&lt;/p&gt;" style="text;html=1;strokeColor=none;fillColor=none;spacing=5;spacingTop=-20;whiteSpace=wrap;overflow=hidden;rounded=0;fontSize=15;" parent="2R_5ch53V4PXtTOOOV5N-2" vertex="1">
                    <mxGeometry x="50" y="530" width="190" height="180" as="geometry"/>
                </mxCell>
                <mxCell id="2R_5ch53V4PXtTOOOV5N-12" value="" style="verticalLabelPosition=bottom;shadow=0;dashed=0;align=center;html=1;verticalAlign=top;strokeWidth=1;shape=mxgraph.mockup.markup.line;strokeColor=#999999;fontSize=21;" parent="2R_5ch53V4PXtTOOOV5N-2" vertex="1">
                    <mxGeometry x="30" y="520" width="740" height="20" as="geometry"/>
                </mxCell>
                <mxCell id="2R_5ch53V4PXtTOOOV5N-13" value="" style="strokeWidth=1;shadow=0;dashed=0;align=center;html=1;shape=mxgraph.mockup.forms.rrect;rSize=0;strokeColor=#999999;fillColor=#ffffff;fontSize=21;" parent="2R_5ch53V4PXtTOOOV5N-2" vertex="1">
                    <mxGeometry x="30" y="287" width="150" height="130" as="geometry"/>
                </mxCell>
                <mxCell id="2R_5ch53V4PXtTOOOV5N-14" value="Tên nhân viên" style="strokeWidth=1;shadow=0;dashed=0;align=center;html=1;shape=mxgraph.mockup.forms.rrect;rSize=0;strokeColor=#999999;fontColor=#008cff;fontSize=17;fillColor=#ffffff;resizeWidth=1;" parent="2R_5ch53V4PXtTOOOV5N-13" vertex="1">
                    <mxGeometry width="150" height="30" relative="1" as="geometry"/>
                </mxCell>
                <mxCell id="2R_5ch53V4PXtTOOOV5N-15" value="Mã nhân viên" style="strokeWidth=1;shadow=0;dashed=0;align=center;html=1;shape=mxgraph.mockup.forms.anchor;fontSize=17;fontColor=#666666;align=left;spacingLeft=5;resizeWidth=1;" parent="2R_5ch53V4PXtTOOOV5N-13" vertex="1">
                    <mxGeometry width="150" height="20" relative="1" as="geometry">
                        <mxPoint y="30" as="offset"/>
                    </mxGeometry>
                </mxCell>
                <mxCell id="2R_5ch53V4PXtTOOOV5N-16" value="Hệ số lương" style="strokeWidth=1;shadow=0;dashed=0;align=center;html=1;shape=mxgraph.mockup.forms.anchor;fontSize=17;fontColor=#666666;align=left;spacingLeft=5;resizeWidth=1;" parent="2R_5ch53V4PXtTOOOV5N-13" vertex="1">
                    <mxGeometry width="150" height="20" relative="1" as="geometry">
                        <mxPoint y="50" as="offset"/>
                    </mxGeometry>
                </mxCell>
                <mxCell id="2R_5ch53V4PXtTOOOV5N-17" value="Ngày làm thêm" style="strokeWidth=1;shadow=0;dashed=0;align=center;html=1;shape=mxgraph.mockup.forms.rrect;rSize=0;fontSize=17;fontColor=#666666;align=left;spacingLeft=5;fillColor=#ddeeff;strokeColor=none;resizeWidth=1;" parent="2R_5ch53V4PXtTOOOV5N-13" vertex="1">
                    <mxGeometry width="150" height="20" relative="1" as="geometry">
                        <mxPoint y="70" as="offset"/>
                    </mxGeometry>
                </mxCell>
                <mxCell id="2R_5ch53V4PXtTOOOV5N-18" value="Lương" style="strokeWidth=1;shadow=0;dashed=0;align=center;html=1;shape=mxgraph.mockup.forms.anchor;fontSize=17;fontColor=#666666;align=left;spacingLeft=5;resizeWidth=1;" parent="2R_5ch53V4PXtTOOOV5N-13" vertex="1">
                    <mxGeometry width="150" height="20" relative="1" as="geometry">
                        <mxPoint y="90" as="offset"/>
                    </mxGeometry>
                </mxCell>
                <mxCell id="t9sqGVcBYZF6GXZM8yIn-0" value="Nhân viên" style="strokeWidth=1;shadow=0;dashed=0;align=center;html=1;shape=mxgraph.mockup.navigation.anchor;fontSize=17;fontColor=#666666;fontStyle=1;" parent="2R_5ch53V4PXtTOOOV5N-2" vertex="1">
                    <mxGeometry x="40" y="200" width="60" height="30" as="geometry"/>
                </mxCell>
                <mxCell id="t9sqGVcBYZF6GXZM8yIn-1" value="/" style="strokeWidth=1;shadow=0;dashed=0;align=center;html=1;shape=mxgraph.mockup.navigation.anchor;fontSize=24;fontColor=#aaaaaa;fontStyle=1;" parent="2R_5ch53V4PXtTOOOV5N-2" vertex="1">
                    <mxGeometry x="120" y="200" width="20" height="30" as="geometry"/>
                </mxCell>
                <mxCell id="t9sqGVcBYZF6GXZM8yIn-2" value="Bảng lương" style="strokeWidth=1;shadow=0;dashed=0;align=center;html=1;shape=mxgraph.mockup.navigation.anchor;fontSize=17;fontColor=#008cff;fontStyle=1;" parent="2R_5ch53V4PXtTOOOV5N-2" vertex="1">
                    <mxGeometry x="170" y="200" width="60" height="30" as="geometry"/>
                </mxCell>
                <mxCell id="t9sqGVcBYZF6GXZM8yIn-3" value="Sắp xếp theo mã nhân viên" style="strokeWidth=1;shadow=0;dashed=0;align=center;html=1;shape=mxgraph.mockup.buttons.button;strokeColor=#666666;fontColor=#ffffff;mainText=;buttonStyle=round;fontSize=17;fontStyle=1;fillColor=#008cff;whiteSpace=wrap;" parent="2R_5ch53V4PXtTOOOV5N-2" vertex="1">
                    <mxGeometry x="30" y="230" width="240" height="40" as="geometry"/>
                </mxCell>
                <mxCell id="t9sqGVcBYZF6GXZM8yIn-10" value="" style="strokeWidth=1;shadow=0;dashed=0;align=center;html=1;shape=mxgraph.mockup.forms.rrect;rSize=0;strokeColor=#999999;fillColor=#ffffff;fontSize=21;" parent="2R_5ch53V4PXtTOOOV5N-2" vertex="1">
                    <mxGeometry x="210" y="287" width="150" height="130" as="geometry"/>
                </mxCell>
                <mxCell id="t9sqGVcBYZF6GXZM8yIn-11" value="Tên nhân viên" style="strokeWidth=1;shadow=0;dashed=0;align=center;html=1;shape=mxgraph.mockup.forms.rrect;rSize=0;strokeColor=#999999;fontColor=#008cff;fontSize=17;fillColor=#ffffff;resizeWidth=1;" parent="t9sqGVcBYZF6GXZM8yIn-10" vertex="1">
                    <mxGeometry width="150" height="30" relative="1" as="geometry"/>
                </mxCell>
                <mxCell id="t9sqGVcBYZF6GXZM8yIn-12" value="Mã nhân viên" style="strokeWidth=1;shadow=0;dashed=0;align=center;html=1;shape=mxgraph.mockup.forms.anchor;fontSize=17;fontColor=#666666;align=left;spacingLeft=5;resizeWidth=1;" parent="t9sqGVcBYZF6GXZM8yIn-10" vertex="1">
                    <mxGeometry width="150" height="20" relative="1" as="geometry">
                        <mxPoint y="30" as="offset"/>
                    </mxGeometry>
                </mxCell>
                <mxCell id="t9sqGVcBYZF6GXZM8yIn-13" value="Hệ số lương" style="strokeWidth=1;shadow=0;dashed=0;align=center;html=1;shape=mxgraph.mockup.forms.anchor;fontSize=17;fontColor=#666666;align=left;spacingLeft=5;resizeWidth=1;" parent="t9sqGVcBYZF6GXZM8yIn-10" vertex="1">
                    <mxGeometry width="150" height="20" relative="1" as="geometry">
                        <mxPoint y="50" as="offset"/>
                    </mxGeometry>
                </mxCell>
                <mxCell id="t9sqGVcBYZF6GXZM8yIn-14" value="Ngày làm thêm" style="strokeWidth=1;shadow=0;dashed=0;align=center;html=1;shape=mxgraph.mockup.forms.rrect;rSize=0;fontSize=17;fontColor=#666666;align=left;spacingLeft=5;fillColor=#ddeeff;strokeColor=none;resizeWidth=1;" parent="t9sqGVcBYZF6GXZM8yIn-10" vertex="1">
                    <mxGeometry width="150" height="20" relative="1" as="geometry">
                        <mxPoint y="70" as="offset"/>
                    </mxGeometry>
                </mxCell>
                <mxCell id="t9sqGVcBYZF6GXZM8yIn-15" value="Lương" style="strokeWidth=1;shadow=0;dashed=0;align=center;html=1;shape=mxgraph.mockup.forms.anchor;fontSize=17;fontColor=#666666;align=left;spacingLeft=5;resizeWidth=1;" parent="t9sqGVcBYZF6GXZM8yIn-10" vertex="1">
                    <mxGeometry width="150" height="20" relative="1" as="geometry">
                        <mxPoint y="90" as="offset"/>
                    </mxGeometry>
                </mxCell>
                <mxCell id="t9sqGVcBYZF6GXZM8yIn-4" value="" style="strokeWidth=1;shadow=0;dashed=0;align=center;html=1;shape=mxgraph.mockup.forms.rrect;rSize=0;strokeColor=#999999;fillColor=#ffffff;fontSize=21;" parent="2R_5ch53V4PXtTOOOV5N-2" vertex="1">
                    <mxGeometry x="394" y="287" width="150" height="130" as="geometry"/>
                </mxCell>
                <mxCell id="t9sqGVcBYZF6GXZM8yIn-5" value="Tên nhân viên" style="strokeWidth=1;shadow=0;dashed=0;align=center;html=1;shape=mxgraph.mockup.forms.rrect;rSize=0;strokeColor=#999999;fontColor=#008cff;fontSize=17;fillColor=#ffffff;resizeWidth=1;" parent="t9sqGVcBYZF6GXZM8yIn-4" vertex="1">
                    <mxGeometry width="150" height="30" relative="1" as="geometry"/>
                </mxCell>
                <mxCell id="t9sqGVcBYZF6GXZM8yIn-6" value="Mã nhân viên" style="strokeWidth=1;shadow=0;dashed=0;align=center;html=1;shape=mxgraph.mockup.forms.anchor;fontSize=17;fontColor=#666666;align=left;spacingLeft=5;resizeWidth=1;" parent="t9sqGVcBYZF6GXZM8yIn-4" vertex="1">
                    <mxGeometry width="150" height="20" relative="1" as="geometry">
                        <mxPoint y="30" as="offset"/>
                    </mxGeometry>
                </mxCell>
                <mxCell id="t9sqGVcBYZF6GXZM8yIn-7" value="Hệ số lương" style="strokeWidth=1;shadow=0;dashed=0;align=center;html=1;shape=mxgraph.mockup.forms.anchor;fontSize=17;fontColor=#666666;align=left;spacingLeft=5;resizeWidth=1;" parent="t9sqGVcBYZF6GXZM8yIn-4" vertex="1">
                    <mxGeometry width="150" height="20" relative="1" as="geometry">
                        <mxPoint y="50" as="offset"/>
                    </mxGeometry>
                </mxCell>
                <mxCell id="t9sqGVcBYZF6GXZM8yIn-8" value="Ngày làm thêm" style="strokeWidth=1;shadow=0;dashed=0;align=center;html=1;shape=mxgraph.mockup.forms.rrect;rSize=0;fontSize=17;fontColor=#666666;align=left;spacingLeft=5;fillColor=#ddeeff;strokeColor=none;resizeWidth=1;" parent="t9sqGVcBYZF6GXZM8yIn-4" vertex="1">
                    <mxGeometry width="150" height="20" relative="1" as="geometry">
                        <mxPoint y="70" as="offset"/>
                    </mxGeometry>
                </mxCell>
                <mxCell id="t9sqGVcBYZF6GXZM8yIn-9" value="Lương" style="strokeWidth=1;shadow=0;dashed=0;align=center;html=1;shape=mxgraph.mockup.forms.anchor;fontSize=17;fontColor=#666666;align=left;spacingLeft=5;resizeWidth=1;" parent="t9sqGVcBYZF6GXZM8yIn-4" vertex="1">
                    <mxGeometry width="150" height="20" relative="1" as="geometry">
                        <mxPoint y="90" as="offset"/>
                    </mxGeometry>
                </mxCell>
                <mxCell id="t9sqGVcBYZF6GXZM8yIn-23" value="" style="strokeWidth=1;shadow=0;dashed=0;align=center;html=1;shape=mxgraph.mockup.forms.rrect;rSize=0;strokeColor=#999999;fontSize=21;" parent="2R_5ch53V4PXtTOOOV5N-2" vertex="1">
                    <mxGeometry x="170" y="140" width="500" height="30" as="geometry"/>
                </mxCell>
                <mxCell id="t9sqGVcBYZF6GXZM8yIn-24" value="Nhân viên" style="strokeColor=inherit;fillColor=inherit;gradientColor=inherit;strokeWidth=1;shadow=0;dashed=0;align=center;html=1;shape=mxgraph.mockup.forms.rrect;rSize=0;fontSize=17;fontColor=#666666;" parent="t9sqGVcBYZF6GXZM8yIn-23" vertex="1">
                    <mxGeometry width="158" height="30" as="geometry"/>
                </mxCell>
                <mxCell id="t9sqGVcBYZF6GXZM8yIn-25" value="Phòng ban" style="strokeColor=inherit;fillColor=inherit;gradientColor=inherit;strokeWidth=1;shadow=0;dashed=0;align=center;html=1;shape=mxgraph.mockup.forms.rrect;rSize=0;fontSize=17;fontColor=#666666;" parent="t9sqGVcBYZF6GXZM8yIn-23" vertex="1">
                    <mxGeometry x="158" width="162" height="30" as="geometry"/>
                </mxCell>
                <mxCell id="t9sqGVcBYZF6GXZM8yIn-26" value="Bảng lương" style="strokeColor=inherit;fillColor=inherit;gradientColor=inherit;strokeWidth=1;shadow=0;dashed=0;align=center;html=1;shape=mxgraph.mockup.forms.rrect;rSize=0;fontSize=17;fontColor=#666666;" parent="t9sqGVcBYZF6GXZM8yIn-23" vertex="1">
                    <mxGeometry x="320" width="180" height="30" as="geometry"/>
                </mxCell>
                <mxCell id="t9sqGVcBYZF6GXZM8yIn-30" value="" style="dashed=0;outlineConnect=0;html=1;align=center;labelPosition=center;verticalLabelPosition=bottom;verticalAlign=top;shape=mxgraph.weblogos.gmail;fontSize=21;" parent="2R_5ch53V4PXtTOOOV5N-2" vertex="1">
                    <mxGeometry x="570" y="560.8000000000001" width="54.8" height="39.4" as="geometry"/>
                </mxCell>
                <mxCell id="t9sqGVcBYZF6GXZM8yIn-32" value="" style="dashed=0;outlineConnect=0;html=1;align=center;labelPosition=center;verticalLabelPosition=bottom;verticalAlign=top;shape=mxgraph.weblogos.twitter;fillColor=#1DA1F2;strokeColor=none;fontSize=21;" parent="2R_5ch53V4PXtTOOOV5N-2" vertex="1">
                    <mxGeometry x="510" y="560.8" width="40" height="39.2" as="geometry"/>
                </mxCell>
                <mxCell id="t9sqGVcBYZF6GXZM8yIn-33" value="" style="dashed=0;outlineConnect=0;html=1;align=center;labelPosition=center;verticalLabelPosition=bottom;verticalAlign=top;shape=mxgraph.weblogos.yahoo_2;fillColor=#65106E;strokeColor=none;fontSize=21;" parent="2R_5ch53V4PXtTOOOV5N-2" vertex="1">
                    <mxGeometry x="640" y="560.8" width="60" height="39.2" as="geometry"/>
                </mxCell>
                <mxCell id="4zW7HJJdLBTlGhhgO09O-0" value="" style="dashed=0;outlineConnect=0;html=1;align=center;labelPosition=center;verticalLabelPosition=bottom;verticalAlign=top;shape=mxgraph.weblogos.youtube;fillColor=#FF2626;gradientColor=#B5171F;fontSize=21;" parent="2R_5ch53V4PXtTOOOV5N-2" vertex="1">
                    <mxGeometry x="380" y="560.8" width="108.6" height="39.2" as="geometry"/>
                </mxCell>
                <mxCell id="3pg7ygZsc8NvmuTFZTeA-0" value="" style="strokeWidth=1;shadow=0;dashed=0;align=center;html=1;shape=mxgraph.mockup.forms.rrect;rSize=0;strokeColor=#999999;fillColor=#ffffff;fontSize=21;" parent="2R_5ch53V4PXtTOOOV5N-2" vertex="1">
                    <mxGeometry x="570" y="287" width="150" height="130" as="geometry"/>
                </mxCell>
                <mxCell id="3pg7ygZsc8NvmuTFZTeA-1" value="Tên nhân viên" style="strokeWidth=1;shadow=0;dashed=0;align=center;html=1;shape=mxgraph.mockup.forms.rrect;rSize=0;strokeColor=#999999;fontColor=#008cff;fontSize=17;fillColor=#ffffff;resizeWidth=1;" parent="3pg7ygZsc8NvmuTFZTeA-0" vertex="1">
                    <mxGeometry width="150" height="30" relative="1" as="geometry"/>
                </mxCell>
                <mxCell id="3pg7ygZsc8NvmuTFZTeA-2" value="Mã nhân viên" style="strokeWidth=1;shadow=0;dashed=0;align=center;html=1;shape=mxgraph.mockup.forms.anchor;fontSize=17;fontColor=#666666;align=left;spacingLeft=5;resizeWidth=1;" parent="3pg7ygZsc8NvmuTFZTeA-0" vertex="1">
                    <mxGeometry width="150" height="20" relative="1" as="geometry">
                        <mxPoint y="30" as="offset"/>
                    </mxGeometry>
                </mxCell>
                <mxCell id="3pg7ygZsc8NvmuTFZTeA-3" value="Hệ số lương" style="strokeWidth=1;shadow=0;dashed=0;align=center;html=1;shape=mxgraph.mockup.forms.anchor;fontSize=17;fontColor=#666666;align=left;spacingLeft=5;resizeWidth=1;" parent="3pg7ygZsc8NvmuTFZTeA-0" vertex="1">
                    <mxGeometry width="150" height="20" relative="1" as="geometry">
                        <mxPoint y="50" as="offset"/>
                    </mxGeometry>
                </mxCell>
                <mxCell id="3pg7ygZsc8NvmuTFZTeA-4" value="Ngày làm thêm" style="strokeWidth=1;shadow=0;dashed=0;align=center;html=1;shape=mxgraph.mockup.forms.rrect;rSize=0;fontSize=17;fontColor=#666666;align=left;spacingLeft=5;fillColor=#ddeeff;strokeColor=none;resizeWidth=1;" parent="3pg7ygZsc8NvmuTFZTeA-0" vertex="1">
                    <mxGeometry width="150" height="20" relative="1" as="geometry">
                        <mxPoint y="70" as="offset"/>
                    </mxGeometry>
                </mxCell>
                <mxCell id="3pg7ygZsc8NvmuTFZTeA-5" value="Lương" style="strokeWidth=1;shadow=0;dashed=0;align=center;html=1;shape=mxgraph.mockup.forms.anchor;fontSize=17;fontColor=#666666;align=left;spacingLeft=5;resizeWidth=1;" parent="3pg7ygZsc8NvmuTFZTeA-0" vertex="1">
                    <mxGeometry width="150" height="20" relative="1" as="geometry">
                        <mxPoint y="90" as="offset"/>
                    </mxGeometry>
                </mxCell>
                <mxCell id="BVOKn5BtqEEUtoL_eeCk-0" value="Logo" style="rounded=0;whiteSpace=wrap;html=1;fontSize=20;" parent="2R_5ch53V4PXtTOOOV5N-1" vertex="1">
                    <mxGeometry x="42" y="-1010" width="121" height="30" as="geometry"/>
                </mxCell>
            </root>
        </mxGraphModel>
    </diagram>
</mxfile>